<?xml version="1.0" encoding="UTF-8" standalone="no"?>
<svg
   xmlns:dc="http://purl.org/dc/elements/1.1/"
   xmlns:cc="http://creativecommons.org/ns#"
   xmlns:rdf="http://www.w3.org/1999/02/22-rdf-syntax-ns#"
   xmlns:svg="http://www.w3.org/2000/svg"
   xmlns="http://www.w3.org/2000/svg"
   xmlns:sodipodi="http://sodipodi.sourceforge.net/DTD/sodipodi-0.dtd"
   xmlns:inkscape="http://www.inkscape.org/namespaces/inkscape"
   inkscape:version="1.0 (4035a4fb49, 2020-05-01)"
   sodipodi:docname="close.svg"
   id="svg8"
   version="1.1"
   viewBox="0 0 512 512"
   style="height: 512px; width: 512px;">
  <metadata
     id="metadata14">
    <rdf:RDF>
      <cc:Work
         rdf:about="">
        <dc:format>image/svg+xml</dc:format>
        <dc:type
           rdf:resource="http://purl.org/dc/dcmitype/StillImage" />
      </cc:Work>
    </rdf:RDF>
  </metadata>
  <defs
     id="defs12" />
  <sodipodi:namedview
     inkscape:current-layer="svg8"
     inkscape:window-maximized="1"
     inkscape:window-y="-8"
     inkscape:window-x="-8"
     inkscape:cy="300.94282"
     inkscape:cx="256"
     inkscape:zoom="1.6162671"
     showgrid="false"
     id="namedview10"
     inkscape:window-height="1017"
     inkscape:window-width="1920"
     inkscape:pageshadow="2"
     inkscape:pageopacity="0"
     guidetolerance="10"
     gridtolerance="10"
     objecttolerance="10"
     borderopacity="1"
     bordercolor="#666666"
     pagecolor="#ffffff" />
  <path
     inkscape:label="path2"
     style="display:inline"
     id="path2"
     fill-opacity="1"
     fill="#000000"
     d="M 0,0 H 512 V 512 H 0 Z" />
  <g
     style="display:inline"
     id="g6"
     class="">
    <path
       sodipodi:nodetypes="ccccccccccccccccc"
       id="path4"
       fill-opacity="1"
       fill="#ffffff"
       d="m 175.375,136 c -0.97,-0.005 -2.006,0.112 -3.063,0.313 v -0.032 c -18.297,3.436 -45.264,34.743 -33.375,46.626 l 73.157,73.125 -73.156,73.126 c -14.63,14.625 29.275,58.534 43.906,43.906 L 256,299.906 l 73.156,73.156 c 14.63,14.628 58.537,-29.28 43.906,-43.906 l -73.156,-73.125 73.156,-73.124 c 14.63,-14.625 -29.275,-58.5 -43.906,-43.875 L 256,212.157 182.844,139.032 c -2.06,-2.046 -4.56,-3.015 -7.47,-3.03 z" />
  </g>
</svg>
